<svg width="100" height="100" viewBox="0 0 100 100" fill="none" xmlns="http://www.w3.org/2000/svg">
  <!-- Mobile Device Frame -->
  <rect x="30" y="10" width="40" height="80" rx="8" fill="#2B2B2B"/>
  <rect x="32" y="12" width="36" height="76" rx="6" fill="#FFFFFF"/>
  
  <!-- Screen Elements -->
  <rect x="35" y="20" width="30" height="10" rx="2" fill="#FF6B00"/>
  <rect x="35" y="35" width="30" height="5" rx="1" fill="#E0E0E0"/>
  <rect x="35" y="45" width="30" height="5" rx="1" fill="#E0E0E0"/>
  
  <!-- App Icons -->
  <rect x="35" y="55" width="12" height="12" rx="3" fill="#FF6B00"/>
  <rect x="52" y="55" width="12" height="12" rx="3" fill="#2B2B2B"/>
  <rect x="35" y="72" width="12" height="12" rx="3" fill="#2B2B2B"/>
  <rect x="52" y="72" width="12" height="12" rx="3" fill="#FF6B00"/>
  
  <!-- Code Elements -->
  <circle cx="15" cy="30" r="8" fill="#FF6B00" fill-opacity="0.2"/>
  <rect x="75" y="40" width="15" height="3" rx="1.5" fill="#2B2B2B"/>
  <rect x="75" y="45" width="12" height="3" rx="1.5" fill="#2B2B2B"/>
  <rect x="75" y="50" width="10" height="3" rx="1.5" fill="#2B2B2B"/>
  
  <!-- Decorative Elements -->
  <circle cx="85" cy="70" r="10" fill="#FF6B00" fill-opacity="0.2"/>
</svg>