<svg width="600" height="400" viewBox="0 0 600 400" fill="none" xmlns="http://www.w3.org/2000/svg">
  <!-- Background Elements -->
  <rect width="600" height="400" fill="#F5F5F5" fill-opacity="0.1"/>
  
  <!-- Laptop Design -->
  <rect x="150" y="100" width="300" height="200" rx="10" fill="#2B2B2B"/>
  <rect x="170" y="120" width="260" height="160" fill="#FFFFFF"/>
  <rect x="100" y="300" width="400" height="20" rx="10" fill="#2B2B2B"/>
  
  <!-- Website Elements on Screen -->
  <rect x="190" y="140" width="100" height="10" rx="5" fill="#FF6B00"/>
  <rect x="190" y="160" width="220" height="5" rx="2.5" fill="#E0E0E0"/>
  <rect x="190" y="175" width="220" height="5" rx="2.5" fill="#E0E0E0"/>
  <rect x="190" y="190" width="180" height="5" rx="2.5" fill="#E0E0E0"/>
  
  <!-- Decorative Elements -->
  <circle cx="500" cy="80" r="30" fill="#FF6B00" fill-opacity="0.2"/>
  <circle cx="100" cy="320" r="40" fill="#FF6B00" fill-opacity="0.2"/>
  
  <!-- Code Elements -->
  <rect x="450" y="150" width="80" height="100" rx="5" fill="#F5F5F5"/>
  <rect x="460" y="160" width="60" height="5" rx="2.5" fill="#FF6B00"/>
  <rect x="460" y="175" width="40" height="5" rx="2.5" fill="#2B2B2B"/>
  <rect x="460" y="190" width="50" height="5" rx="2.5" fill="#2B2B2B"/>
</svg>