<svg width="400" height="300" viewBox="0 0 400 300" fill="none" xmlns="http://www.w3.org/2000/svg">
  <!-- Background -->
  <rect width="400" height="300" fill="#f8f9fa"/>
  
  <!-- Search Bar -->
  <rect x="50" y="60" width="300" height="40" rx="20" fill="white" stroke="#ddd" stroke-width="2"/>
  <circle cx="320" cy="80" r="15" fill="#3498db"/>
  <path d="m315 75 8 8" stroke="white" stroke-width="2" stroke-linecap="round"/>
  
  <!-- SEO Text in Search -->
  <text x="70" y="85" fill="#7f8c8d" font-size="14">SEO Strategy 2024...</text>
  
  <!-- Graph/Chart -->
  <rect x="80" y="130" width="240" height="120" fill="white" stroke="#ddd" stroke-width="1"/>
  
  <!-- Chart Lines -->
  <polyline points="100,220 140,200 180,180 220,160 260,140 300,120" fill="none" stroke="#27ae60" stroke-width="3"/>
  <polyline points="100,230 140,225 180,210 220,200 260,185 300,170" fill="none" stroke="#e74c3c" stroke-width="2" stroke-dasharray="5,5"/>
  
  <!-- Chart Points -->
  <circle cx="100" cy="220" r="3" fill="#27ae60"/>
  <circle cx="180" cy="180" r="3" fill="#27ae60"/>
  <circle cx="260" cy="140" r="3" fill="#27ae60"/>
  <circle cx="300" cy="120" r="3" fill="#27ae60"/>
  
  <!-- Ranking Numbers -->
  <text x="50" y="125" fill="#2c3e50" font-size="12" font-weight="bold">#1</text>
  <text x="50" y="155" fill="#2c3e50" font-size="12">#5</text>
  <text x="50" y="185" fill="#2c3e50" font-size="12">#10</text>
  
  <!-- Title -->
  <text x="200" y="280" text-anchor="middle" fill="#2c3e50" font-size="16" font-weight="bold">Strategi SEO Terbaru</text>
</svg>